<?xml version="1.0" encoding="utf-8"?>
<!-- Generator: Adobe Illustrator 21.0.2, SVG Export Plug-In . SVG Version: 6.00 Build 0)  -->
<svg version="1.1" id="Layer_1" xmlns="http://www.w3.org/2000/svg" xmlns:xlink="http://www.w3.org/1999/xlink" x="0px" y="0px"
	 viewBox="0 0 185.5 163.2" style="enable-background:new 0 0 185.5 163.2;" xml:space="preserve">
<style type="text/css">
	.st0{fill:#334051;}
	.st1{fill:#F8A076;}
</style>
<g>
	<path class="st0" d="M15.5,153c-2.7,0-4.8-1-6.3-2.9H8.9c0.2,1.9,0.3,3,0.3,3.3v9.3H3v-33h5.1l0.9,3h0.3c1.5-2.3,3.6-3.4,6.5-3.4
		c2.7,0,4.8,1,6.3,3.1s2.3,5,2.3,8.7c0,2.4-0.4,4.6-1.1,6.4s-1.7,3.2-3.1,4.1S17.3,153,15.5,153z M13.7,134.2
		c-1.5,0-2.7,0.5-3.4,1.4c-0.7,1-1.1,2.5-1.1,4.7v0.7c0,2.5,0.4,4.2,1.1,5.3c0.7,1.1,1.9,1.6,3.5,1.6c2.8,0,4.2-2.3,4.2-6.9
		c0-2.3-0.3-3.9-1-5.1C16.2,134.8,15.2,134.2,13.7,134.2z"/>
	<path class="st0" d="M39.4,153c-3.7,0-6.6-1-8.6-3.1s-3.1-4.9-3.1-8.7s1-6.8,2.9-8.9c1.9-2.1,4.6-3.1,7.9-3.1
		c3.2,0,5.7,0.9,7.5,2.8c1.8,1.8,2.7,4.4,2.7,7.6v3H34c0.1,1.8,0.6,3.2,1.6,4.2s2.4,1.5,4.1,1.5c1.4,0,2.7-0.1,3.9-0.4
		c1.2-0.3,2.5-0.7,3.8-1.4v4.8c-1.1,0.5-2.3,1-3.5,1.2C42.7,152.8,41.2,153,39.4,153z M38.5,133.7c-1.3,0-2.4,0.4-3.1,1.3
		c-0.8,0.8-1.2,2-1.3,3.6h8.8c0-1.5-0.4-2.7-1.2-3.6C40.9,134.1,39.9,133.7,38.5,133.7z"/>
	<path class="st0" d="M63,148c1.1,0,2.4-0.2,3.9-0.7v4.7c-1.6,0.7-3.5,1-5.7,1c-2.5,0-4.3-0.6-5.5-1.9c-1.1-1.3-1.7-3.2-1.7-5.7
		v-11.1h-3v-2.6l3.4-2.1l1.8-4.8h4v4.9h6.4v4.7h-6.3v11.1c0,0.9,0.2,1.5,0.7,2C61.5,147.8,62.2,148,63,148z"/>
	<path class="st0" d="M87.1,145.8c0,2.4-0.8,4.1-2.4,5.4s-4.1,1.8-7.3,1.8c-1.7,0-3.1-0.1-4.3-0.3s-2.3-0.6-3.3-1v-5.2
		c1.2,0.5,2.5,1,3.9,1.4c1.5,0.4,2.7,0.6,3.8,0.6c2.3,0,3.4-0.7,3.4-2c0-0.5-0.2-0.9-0.5-1.2s-0.8-0.7-1.6-1
		c-0.7-0.4-1.7-0.8-2.9-1.4c-1.8-0.7-3-1.4-3.9-2.1s-1.4-1.3-1.8-2.2s-0.6-1.8-0.6-3c0-2,0.8-3.6,2.4-4.7c1.6-1.1,3.8-1.7,6.7-1.7
		c2.8,0,5.4,0.6,8,1.8l-1.9,4.5c-1.1-0.5-2.2-0.9-3.2-1.2s-2-0.5-3-0.5c-1.8,0-2.8,0.5-2.8,1.5c0,0.6,0.3,1,0.9,1.5
		c0.6,0.4,1.9,1,3.9,1.8c1.8,0.7,3.1,1.4,3.9,2c0.8,0.6,1.4,1.4,1.8,2.2S87.1,144.6,87.1,145.8z"/>
	<path class="st0" d="M114.6,134.3h-5.4v18.3H103v-18.2h-3.4v-3l3.4-1.7V128c0-2.6,0.6-4.5,1.9-5.7s3.3-1.8,6.2-1.8
		c2.2,0,4.1,0.3,5.7,1l-1.6,4.6c-1.3-0.4-2.4-0.6-3.5-0.6c-0.9,0-1.5,0.3-1.9,0.8s-0.6,1.2-0.6,2v1.4h5.4L114.6,134.3L114.6,134.3z
		 M118,123.7c0-2,1.1-3.1,3.4-3.1c2.3,0,3.4,1,3.4,3.1c0,1-0.3,1.7-0.8,2.3c-0.6,0.5-1.4,0.8-2.5,0.8
		C119.1,126.8,118,125.8,118,123.7z M124.5,152.6h-6.2v-23h6.2V152.6z"/>
	<path class="st0" d="M143.3,129.2c0.8,0,1.5,0.1,2.1,0.2l-0.5,5.9c-0.5-0.1-1.1-0.2-1.8-0.2c-2,0-3.5,0.5-4.7,1.5
		c-1.1,1-1.7,2.5-1.7,4.3v11.7h-6.2v-23h4.7l0.9,3.9h0.3c0.7-1.3,1.7-2.3,2.9-3.1C140.6,129.6,141.9,129.2,143.3,129.2z"/>
	<path class="st0" d="M165.1,145.8c0,2.4-0.8,4.1-2.4,5.4s-4.1,1.8-7.3,1.8c-1.7,0-3.1-0.1-4.3-0.3s-2.3-0.6-3.3-1v-5.2
		c1.2,0.5,2.5,1,3.9,1.4c1.5,0.4,2.7,0.6,3.8,0.6c2.3,0,3.4-0.7,3.4-2c0-0.5-0.2-0.9-0.5-1.2s-0.8-0.7-1.6-1
		c-0.7-0.4-1.7-0.8-2.9-1.4c-1.8-0.7-3-1.4-3.9-2.1s-1.4-1.3-1.8-2.2s-0.6-1.8-0.6-3c0-2,0.8-3.6,2.4-4.7c1.6-1.1,3.8-1.7,6.7-1.7
		c2.8,0,5.4,0.6,8,1.8l-1.9,4.5c-1.1-0.5-2.2-0.9-3.2-1.2s-2-0.5-3-0.5c-1.8,0-2.8,0.5-2.8,1.5c0,0.6,0.3,1,0.9,1.5
		c0.6,0.4,1.9,1,3.9,1.8c1.8,0.7,3.1,1.4,3.9,2c0.8,0.6,1.4,1.4,1.8,2.2S165.1,144.6,165.1,145.8z"/>
	<path class="st0" d="M179.2,148c1.1,0,2.4-0.2,3.9-0.7v4.7c-1.6,0.7-3.5,1-5.7,1c-2.5,0-4.3-0.6-5.5-1.9c-1.1-1.3-1.7-3.2-1.7-5.7
		v-11.1h-3v-2.6l3.4-2.1l1.8-4.8h4v4.9h6.4v4.7h-6.4v11.1c0,0.9,0.2,1.5,0.7,2C177.7,147.8,178.4,148,179.2,148z"/>
</g>
<g>
	<path class="st1" d="M85.7,110.2c-90,2-93.5-111.1,5.1-106.9c1.7,0.1,3,1.5,2.9,3.2l-1.5,31L78.7,55.8l10.9,32.7l-0.9,18.7
		C88.6,108.9,87.3,110.2,85.7,110.2z"/>
	<path class="st0" d="M71.4,43.5c0,1.8-0.6,3.5-1.6,4.8c0,0-3.1-2-5.1-2c-2.2,0-5.5,1.5-5.5,1.5c-0.8-1.2-1.3-2.7-1.3-4.3
		c0-4.1,3-7.3,6.7-7.3C68.3,36.2,71.4,39.4,71.4,43.5z"/>
	<path class="st0" d="M118.5,43.5c0,1.8-0.6,3.5-1.6,4.8c0,0-3.1-2-5.1-2c-2.2,0-5.5,1.5-5.5,1.5c-0.8-1.2-1.3-2.7-1.3-4.3
		c0-4.1,3-7.3,6.7-7.3S118.5,39.4,118.5,43.5z"/>
	<path class="st0" d="M133.8,89.5c-0.8-1.2-2.4-1.5-3.6-0.7c-0.5,0.4-1.1,0.8-1.7,1.2c-8,5.6-18,12.6-26.9,7.1
		c-9.2-5.7-13.4-18-16.3-29.2c-0.6-2.4-1.1-4.8-1.5-7.2c-0.3-1.4-0.5-2.8-0.8-4.1c0-0.1,0-0.4,0-0.6c0-0.1,0-0.2,0-0.3
		c0.1-0.1,0.1-0.1,0.2-0.2c0.2-0.2,0.4-0.4,0.5-0.6l33.8-45.5c0.6-0.8,0.7-1.7,0.3-2.5c-0.4-0.9-1.3-1.5-2.3-1.6s-2,0.3-2.6,1.1
		L97.4,27.3c-2.1,2.8-4.2,5.6-6.4,8.3c-4.3,5.5-8.7,11.2-12.5,17.1c-1.2,1.9-1.2,2.9-0.8,4.9c0.7,4.4,1.6,8.9,2.9,13.3
		c2.9,10.6,7.5,23.6,17.6,30.4c3.5,2.3,7,3.3,10.4,3.3c8.5,0,16.7-5.7,23.7-10.5l0.8-0.6C134.4,92.5,134.7,90.8,133.8,89.5z"/>
	<path class="st0" d="M146.1,27.4c-0.6,10.4-15.6,10.4-16.2,0c-0.2-3.1-5.1-3.2-4.9,0c0.4,7,5.7,13,13,13s12.6-6,13-13
		C151.2,24.2,146.3,24.2,146.1,27.4L146.1,27.4z"/>
</g>
</svg>
