<?xml version="1.0" encoding="utf-8"?>
<!-- Generator: Adobe Illustrator 21.0.2, SVG Export Plug-In . SVG Version: 6.00 Build 0)  -->
<svg version="1.1" id="Layer_1" xmlns="http://www.w3.org/2000/svg" xmlns:xlink="http://www.w3.org/1999/xlink" x="0px" y="0px"
	 viewBox="0 0 261.5 123.1" style="enable-background:new 0 0 261.5 123.1;" xml:space="preserve">
<style type="text/css">
	.st0{fill:#F8A076;}
	.st1{fill:#FFFFFF;}
	.st2{fill:#334051;}
</style>
<g>
	<path class="st0" d="M259.6,117c0,2-1.6,3.6-3.6,3.6H5.4c-2,0-3.6-1.6-3.6-3.6V5.7c0-2,1.6-3.6,3.6-3.6H256c2,0,3.6,1.6,3.6,3.6
		V117z"/>
</g>
<g>
	<path class="st1" d="M69.6,108.9c-78.9,1.8-81.9-97.4,4.5-93.7c1.5,0.1,2.6,1.3,2.5,2.8l-1.4,27.2L63.4,61.3L73,90l-0.8,16.4
		C72.1,107.8,71,108.9,69.6,108.9z"/>
	<g>
		<path class="st2" d="M57.1,50.5c0,1.6-0.5,3.1-1.4,4.2c0,0-2.7-1.8-4.5-1.8c-2,0-4.8,1.3-4.8,1.3c-0.7-1.1-1.1-2.4-1.1-3.8
			c0-3.6,2.6-6.4,5.9-6.4C54.5,44,57.1,46.9,57.1,50.5z"/>
		<path class="st2" d="M97.5,50.5c0,1.6-0.5,3.1-1.4,4.2c0,0-2.7-1.8-4.5-1.8c-2,0-4.8,1.3-4.8,1.3c-0.7-1.1-1.1-2.4-1.1-3.8
			c0-3.6,2.6-6.4,5.9-6.4C94.9,44,97.5,46.9,97.5,50.5z"/>
		<path class="st2" d="M110.9,90.8c-0.7-1.1-2.1-1.3-3.2-0.6c-0.5,0.3-1,0.7-1.5,1c-7,4.9-15.8,11-23.6,6.2
			c-8.1-5-11.8-15.8-14.3-25.6c-0.5-2.1-0.9-4.2-1.3-6.3c-0.2-1.2-0.5-2.4-0.7-3.6c0-0.1,0-0.4,0-0.5s0-0.2,0-0.3
			c0.1-0.1,0.1-0.1,0.2-0.2c0.2-0.2,0.3-0.4,0.4-0.5l29.6-39.9c0.5-0.7,0.6-1.5,0.3-2.2c-0.3-0.8-1.1-1.3-2-1.4s-1.7,0.3-2.2,1
			L78.9,36.1c-1.8,2.4-3.7,4.9-5.6,7.2c-3.8,4.8-7.7,9.8-11,15c-1.1,1.7-1,2.5-0.7,4.3c0.6,3.8,1.4,7.8,2.5,11.7
			c2.5,9.3,6.6,20.7,15.4,26.6c3,2.1,6.1,2.9,9.2,2.9c7.4,0,14.6-5,20.8-9.2l0.7-0.5C111.4,93.4,111.7,91.9,110.9,90.8z"/>
		<path class="st2" d="M121.7,36.3c-0.5,9.1-13.7,9.1-14.2,0c-0.1-2.8-4.5-2.8-4.3,0c0.3,6.2,5,11.4,11.4,11.4s11.1-5.2,11.4-11.4
			C126.2,33.5,121.8,33.5,121.7,36.3L121.7,36.3z"/>
	</g>
</g>
<g>
	<path class="st1" d="M149.2,50.1c-3.3,0-5.9-1.2-7.8-3.6H141c0.3,2.3,0.4,3.7,0.4,4.1V62h-7.7V21.5h6.2l1.1,3.7h0.4
		c1.8-2.8,4.4-4.2,8-4.2c3.3,0,5.9,1.3,7.8,3.9c1.9,2.6,2.8,6.1,2.8,10.7c0,3-0.4,5.6-1.3,7.8s-2.1,3.9-3.8,5.1
		C153.3,49.5,151.4,50.1,149.2,50.1z M146.9,27.1c-1.9,0-3.3,0.6-4.1,1.8c-0.9,1.2-1.3,3.1-1.4,5.8v0.8c0,3,0.4,5.2,1.3,6.5
		c0.9,1.3,2.3,2,4.3,2c3.4,0,5.1-2.8,5.1-8.5c0-2.8-0.4-4.8-1.3-6.2C150.1,27.8,148.7,27.1,146.9,27.1z"/>
	<path class="st1" d="M178.5,50.1c-4.5,0-8.1-1.3-10.6-3.8s-3.8-6-3.8-10.6c0-4.7,1.2-8.4,3.5-10.9c2.4-2.6,5.6-3.9,9.8-3.9
		c4,0,7.1,1.1,9.3,3.4c2.2,2.3,3.3,5.4,3.3,9.4v3.7h-18.1c0.1,2.2,0.7,3.9,1.9,5.1c1.2,1.2,2.9,1.8,5.1,1.8c1.7,0,3.3-0.2,4.8-0.5
		c1.5-0.4,3.1-0.9,4.7-1.7V48c-1.3,0.7-2.8,1.2-4.3,1.5C182.6,50,180.7,50.1,178.5,50.1z M177.4,26.4c-1.6,0-2.9,0.5-3.8,1.5
		s-1.4,2.5-1.6,4.4h10.7c0-1.9-0.5-3.4-1.5-4.4S179.1,26.4,177.4,26.4z"/>
	<path class="st1" d="M207.5,44c1.3,0,2.9-0.3,4.8-0.9v5.7c-1.9,0.9-4.3,1.3-7,1.3c-3.1,0-5.3-0.8-6.7-2.3s-2.1-3.9-2.1-7V27.2h-3.7
		V24l4.2-2.6l2.2-5.9h4.9v6h7.9v5.8h-7.9v13.6c0,1.1,0.3,1.9,0.9,2.4S206.5,44,207.5,44z"/>
	<path class="st1" d="M237.1,41.3c0,2.9-1,5.1-3,6.6s-5,2.3-9,2.3c-2,0-3.8-0.1-5.2-0.4c-1.4-0.3-2.8-0.7-4-1.2v-6.3
		c1.4,0.7,3,1.2,4.8,1.7s3.4,0.7,4.7,0.7c2.8,0,4.2-0.8,4.2-2.4c0-0.6-0.2-1.1-0.6-1.5s-1-0.8-1.9-1.3s-2.1-1-3.6-1.7
		c-2.2-0.9-3.7-1.7-4.8-2.5c-1-0.8-1.7-1.7-2.2-2.7c-0.5-1-0.7-2.2-0.7-3.7c0-2.5,1-4.4,2.9-5.8s4.7-2.1,8.2-2.1
		c3.4,0,6.7,0.7,9.9,2.2l-2.3,5.5c-1.4-0.6-2.7-1.1-3.9-1.5c-1.2-0.4-2.5-0.6-3.7-0.6c-2.3,0-3.4,0.6-3.4,1.8c0,0.7,0.4,1.3,1.1,1.8
		s2.3,1.3,4.8,2.2c2.2,0.9,3.8,1.7,4.8,2.5s1.8,1.7,2.3,2.7C236.8,38.7,237.1,39.9,237.1,41.3z"/>
	<path class="st1" d="M149.3,83.7h-6.6v22.4H135V83.7h-4.2V80l4.2-2.1v-2.1c0-3.2,0.8-5.5,2.4-7c1.6-1.5,4.1-2.2,7.6-2.2
		c2.6,0,5,0.4,7.1,1.2l-2,5.6c-1.5-0.5-3-0.7-4.3-0.7c-1.1,0-1.9,0.3-2.4,1c-0.5,0.6-0.7,1.5-0.7,2.5V78h6.6L149.3,83.7L149.3,83.7z
		 M153.4,70.7c0-2.5,1.4-3.8,4.2-3.8s4.2,1.2,4.2,3.8c0,1.2-0.3,2.1-1,2.8s-1.7,1-3.1,1C154.8,74.4,153.4,73.2,153.4,70.7z
		 M161.4,106.1h-7.7V77.9h7.7V106.1z"/>
	<path class="st1" d="M184.5,77.4c1,0,1.9,0.1,2.6,0.2l-0.6,7.2c-0.6-0.2-1.4-0.3-2.3-0.3c-2.4,0-4.3,0.6-5.7,1.9
		c-1.4,1.3-2,3-2,5.3V106h-7.7V77.8h5.8l1.1,4.7h0.4c0.9-1.6,2-2.8,3.5-3.8C181.2,77.9,182.8,77.4,184.5,77.4z"/>
	<path class="st1" d="M211.3,97.7c0,2.9-1,5.1-3,6.6s-5,2.3-9,2.3c-2,0-3.8-0.1-5.2-0.4c-1.4-0.3-2.8-0.7-4-1.2v-6.3
		c1.4,0.7,3,1.2,4.8,1.7s3.4,0.7,4.7,0.7c2.8,0,4.2-0.8,4.2-2.4c0-0.6-0.2-1.1-0.6-1.5s-1-0.8-1.9-1.3s-2.1-1-3.6-1.7
		c-2.2-0.9-3.7-1.7-4.8-2.5c-1-0.8-1.7-1.7-2.2-2.7s-0.7-2.2-0.7-3.7c0-2.5,1-4.4,2.9-5.8s4.7-2.1,8.2-2.1c3.4,0,6.7,0.7,9.9,2.2
		l-2.3,5.5c-1.4-0.6-2.7-1.1-3.9-1.5c-1.2-0.4-2.5-0.6-3.7-0.6c-2.3,0-3.4,0.6-3.4,1.8c0,0.7,0.4,1.3,1.1,1.8s2.3,1.3,4.8,2.2
		c2.2,0.9,3.8,1.7,4.8,2.5s1.8,1.7,2.3,2.7C211,95.1,211.3,96.3,211.3,97.7z"/>
	<path class="st1" d="M228.6,100.5c1.3,0,2.9-0.3,4.8-0.9v5.7c-1.9,0.9-4.3,1.3-7,1.3c-3.1,0-5.3-0.8-6.7-2.3s-2.1-3.9-2.1-7V83.7
		h-3.7v-3.2l4.2-2.6l2.2-5.9h4.9v6h7.9v5.8h-7.9v13.6c0,1.1,0.3,1.9,0.9,2.4S227.5,100.5,228.6,100.5z"/>
</g>
</svg>
