<?xml version="1.0" encoding="utf-8"?>
<!-- Generator: Adobe Illustrator 21.0.2, SVG Export Plug-In . SVG Version: 6.00 Build 0)  -->
<svg version="1.1" id="Layer_1" xmlns="http://www.w3.org/2000/svg" xmlns:xlink="http://www.w3.org/1999/xlink" x="0px" y="0px"
	 viewBox="0 0 347.9 166.7" style="enable-background:new 0 0 347.9 166.7;" xml:space="preserve">
<style type="text/css">
	.st0{fill:#F8A076;}
	.st1{fill:#334051;}
	.st2{fill:#FFFFFF;}
</style>
<g>
	<path class="st0" d="M163.4,161c0,2-1.6,3.6-3.6,3.6H5.8c-2,0-3.6-1.6-3.6-3.6V5.8c0-2,1.6-3.6,3.6-3.6h154c2,0,3.6,1.6,3.6,3.6
		V161z"/>
</g>
<g>
	<path class="st1" d="M200.7,64.5c-5.4,0-9.7-2-12.8-5.9h-0.7c0.4,3.9,0.7,6.1,0.7,6.7v18.8h-12.6V17.3h10.3l1.8,6h0.6
		c3-4.6,7.3-6.9,13.1-6.9c5.5,0,9.7,2.1,12.8,6.4c3.1,4.2,4.6,10.1,4.6,17.6c0,5-0.7,9.3-2.2,12.9c-1.4,3.7-3.5,6.4-6.2,8.3
		C207.5,63.6,204.3,64.5,200.7,64.5z M197,26.6c-3.1,0-5.4,1-6.8,2.9c-1.4,1.9-2.2,5.1-2.2,9.5v1.4c0,5,0.7,8.6,2.2,10.7
		c1.5,2.2,3.8,3.2,7,3.2c5.7,0,8.5-4.7,8.5-14c0-4.6-0.7-8-2.1-10.3C202.2,27.7,200,26.6,197,26.6z"/>
	<path class="st1" d="M249.1,64.5c-7.4,0-13.3-2.1-17.5-6.2c-4.2-4.1-6.3-10-6.3-17.5c0-7.8,1.9-13.8,5.8-18s9.2-6.4,16.1-6.4
		c6.5,0,11.6,1.9,15.3,5.6s5.5,8.9,5.5,15.5v6.1h-29.8c0.1,3.6,1.2,6.4,3.2,8.4s4.8,3,8.4,3c2.8,0,5.4-0.3,7.9-0.9
		c2.5-0.6,5.1-1.5,7.8-2.8v9.8c-2.2,1.1-4.6,1.9-7.1,2.5C255.7,64.3,252.7,64.5,249.1,64.5z M247.3,25.4c-2.7,0-4.8,0.9-6.3,2.6
		s-2.4,4.1-2.6,7.2h17.7c-0.1-3.1-0.9-5.5-2.4-7.2C252.1,26.3,249.9,25.4,247.3,25.4z"/>
	<path class="st1" d="M296.8,54.5c2.2,0,4.9-0.5,7.9-1.5v9.4c-3.1,1.4-7,2.1-11.6,2.1c-5,0-8.7-1.3-11-3.8
		c-2.3-2.6-3.5-6.4-3.5-11.5V26.8h-6v-5.4l7-4.2l3.6-9.8h8.1v9.9h13v9.5h-13v22.4c0,1.8,0.5,3.1,1.5,4
		C293.8,54,295.2,54.5,296.8,54.5z"/>
	<path class="st1" d="M345.6,49.9c0,4.8-1.6,8.4-4.9,10.9s-8.2,3.7-14.8,3.7c-3.4,0-6.2-0.2-8.6-0.7c-2.4-0.5-4.6-1.1-6.7-2V51.3
		c2.3,1.1,5,2,7.9,2.8s5.5,1.1,7.8,1.1c4.6,0,6.9-1.3,6.9-4c0-1-0.3-1.8-0.9-2.4s-1.7-1.3-3.1-2.1c-1.5-0.8-3.5-1.7-6-2.8
		c-3.6-1.5-6.2-2.9-7.8-4.2c-1.7-1.3-2.9-2.7-3.6-4.4s-1.1-3.7-1.1-6.1c0-4.1,1.6-7.3,4.8-9.6c3.2-2.3,7.7-3.4,13.6-3.4
		c5.6,0,11,1.2,16.3,3.7l-3.8,9.1c-2.3-1-4.5-1.8-6.5-2.4s-4.1-1-6.2-1c-3.7,0-5.6,1-5.6,3c0,1.1,0.6,2.1,1.8,2.9s3.8,2.1,7.9,3.7
		c3.6,1.5,6.3,2.8,7.9,4.1c1.7,1.3,2.9,2.7,3.7,4.4C345.2,45.7,345.6,47.6,345.6,49.9z"/>
	<path class="st1" d="M202.6,114.8h-10.9v36.9h-12.6v-36.9h-7v-6.1l7-3.4v-3.4c0-5.3,1.3-9.1,3.9-11.6c2.6-2.4,6.7-3.7,12.5-3.7
		c4.4,0,8.2,0.7,11.6,2l-3.2,9.3c-2.5-0.8-4.9-1.2-7-1.2c-1.8,0-3.1,0.5-3.9,1.6s-1.2,2.4-1.2,4.1v2.9h10.9L202.6,114.8L202.6,114.8
		z M209.3,93.3c0-4.1,2.3-6.2,6.9-6.2s6.9,2.1,6.9,6.2c0,2-0.6,3.5-1.7,4.6s-2.9,1.6-5.2,1.6C211.6,99.5,209.3,97.5,209.3,93.3z
		 M222.5,151.7h-12.6v-46.4h12.6V151.7z"/>
	<path class="st1" d="M260.6,104.4c1.7,0,3.1,0.1,4.3,0.4l-1,11.9c-1-0.3-2.3-0.4-3.7-0.4c-4,0-7.2,1-9.4,3.1
		c-2.2,2.1-3.4,5-3.4,8.7v23.6h-12.6v-46.4h9.6l1.9,7.8h0.6c1.4-2.6,3.4-4.7,5.8-6.3C255.1,105.2,257.8,104.4,260.6,104.4z"/>
	<path class="st1" d="M304.7,137.9c0,4.8-1.6,8.4-4.9,10.9s-8.2,3.7-14.8,3.7c-3.4,0-6.2-0.2-8.6-0.7s-4.6-1.1-6.7-2v-10.5
		c2.3,1.1,5,2,7.9,2.8s5.5,1.1,7.8,1.1c4.6,0,6.9-1.3,6.9-4c0-1-0.3-1.8-0.9-2.4c-0.6-0.6-1.7-1.3-3.1-2.1c-1.5-0.8-3.5-1.7-6-2.8
		c-3.6-1.5-6.2-2.9-7.8-4.2c-1.7-1.3-2.9-2.7-3.6-4.4s-1.1-3.7-1.1-6.1c0-4.1,1.6-7.3,4.8-9.6c3.2-2.3,7.7-3.4,13.6-3.4
		c5.6,0,11,1.2,16.3,3.7l-3.8,9.1c-2.3-1-4.5-1.8-6.5-2.4c-2-0.6-4.1-1-6.2-1c-3.7,0-5.6,1-5.6,3c0,1.1,0.6,2.1,1.8,2.9
		s3.8,2.1,7.9,3.7c3.6,1.5,6.3,2.8,7.9,4.1c1.7,1.3,2.9,2.7,3.7,4.4C304.3,133.7,304.7,135.6,304.7,137.9z"/>
	<path class="st1" d="M333.2,142.5c2.2,0,4.9-0.5,7.9-1.5v9.4c-3.1,1.4-7,2.1-11.6,2.1c-5,0-8.7-1.3-11-3.8
		c-2.3-2.6-3.5-6.4-3.5-11.5v-22.4h-6v-5.4l7-4.2l3.6-9.8h8.1v9.9h13v9.5h-13v22.4c0,1.8,0.5,3.1,1.5,4
		C330.2,142,331.6,142.5,333.2,142.5z"/>
</g>
<g>
	<path class="st2" d="M83.8,136.7c-90,2-93.5-111.1,5.1-106.9c1.7,0.1,3,1.5,2.9,3.2l-1.5,31L76.8,82.3L87.7,115l-0.9,18.7
		C86.6,135.4,85.4,136.6,83.8,136.7z"/>
	<path class="st1" d="M69.5,70c0,1.8-0.6,3.5-1.6,4.8c0,0-3.1-2-5.1-2c-2.2,0-5.5,1.5-5.5,1.5C56.5,73.1,56,71.6,56,70
		c0-4.1,3-7.3,6.7-7.3C66.4,62.7,69.5,65.9,69.5,70z"/>
	<path class="st1" d="M116.6,70c0,1.8-0.6,3.5-1.6,4.8c0,0-3.1-2-5.1-2c-2.2,0-5.5,1.5-5.5,1.5c-0.8-1.2-1.3-2.7-1.3-4.3
		c0-4.1,3-7.3,6.7-7.3C113.6,62.6,116.6,65.9,116.6,70z"/>
	<path class="st1" d="M131.8,115.9c-0.8-1.2-2.4-1.5-3.6-0.7c-0.5,0.4-1.1,0.8-1.7,1.2c-8,5.6-18,12.6-26.9,7.1
		c-9.2-5.7-13.4-18-16.3-29.2c-0.6-2.4-1.1-4.8-1.5-7.2c-0.3-1.4-0.5-2.8-0.8-4.1c0-0.1,0-0.4,0-0.6c0-0.1,0-0.2,0-0.3
		c0.1-0.1,0.1-0.1,0.2-0.2c0.2-0.2,0.4-0.4,0.5-0.6l33.8-45.5c0.6-0.8,0.7-1.7,0.3-2.5c-0.4-0.9-1.3-1.5-2.3-1.6s-2,0.3-2.6,1.1
		L95.4,53.7c-2.1,2.8-4.2,5.6-6.4,8.3c-4.3,5.5-8.7,11.2-12.5,17.1C75.3,81,75.3,82,75.7,84c0.7,4.4,1.6,8.9,2.9,13.3
		c2.9,10.6,7.5,23.6,17.6,30.4c3.5,2.3,7,3.3,10.4,3.3c8.5,0,16.7-5.7,23.7-10.5l0.8-0.6C132.4,119,132.7,117.2,131.8,115.9z"/>
	<path class="st1" d="M144.2,53.8c-0.6,10.4-15.6,10.4-16.2,0c-0.2-3.1-5.1-3.2-4.9,0c0.4,7,5.7,13,13,13s12.6-6,13-13
		C149.3,50.7,144.3,50.7,144.2,53.8L144.2,53.8z"/>
</g>
</svg>
