<svg id="Layer_1" data-name="Layer 1" xmlns="http://www.w3.org/2000/svg" viewBox="0 0 1920 1080"><defs><style>.cls-1{fill:#6fc5bd;}</style></defs><title>Artboard 1</title><circle class="cls-1" cx="105.83" cy="963.32" r="24.5"/><circle class="cls-1" cx="181.76" cy="963.32" r="24.5"/><circle class="cls-1" cx="257.69" cy="963.32" r="24.5"/><circle class="cls-1" cx="333.61" cy="963.32" r="24.5"/><circle class="cls-1" cx="409.54" cy="963.32" r="24.5"/><circle class="cls-1" cx="485.46" cy="963.32" r="24.5"/><circle class="cls-1" cx="561.39" cy="963.32" r="24.5"/><circle class="cls-1" cx="637.31" cy="963.32" r="24.5"/><circle class="cls-1" cx="713.24" cy="963.32" r="24.5"/><circle class="cls-1" cx="789.17" cy="963.32" r="24.5"/><circle class="cls-1" cx="865.09" cy="963.32" r="24.5"/><circle class="cls-1" cx="941.02" cy="963.32" r="24.5"/><circle class="cls-1" cx="1016.94" cy="963.32" r="24.5"/><circle class="cls-1" cx="1092.87" cy="963.32" r="24.5"/><circle class="cls-1" cx="1168.8" cy="963.32" r="24.5"/><circle class="cls-1" cx="1244.72" cy="963.32" r="24.5"/><circle class="cls-1" cx="1320.65" cy="963.32" r="24.5"/><circle class="cls-1" cx="1396.57" cy="963.32" r="24.5"/><circle class="cls-1" cx="1472.5" cy="963.32" r="24.5"/><circle class="cls-1" cx="1548.43" cy="963.32" r="24.5"/><circle class="cls-1" cx="1624.35" cy="963.32" r="24.5"/><circle class="cls-1" cx="1700.28" cy="963.32" r="24.5"/><circle class="cls-1" cx="1776.2" cy="963.32" r="24.5"/><circle class="cls-1" cx="1852.13" cy="963.32" r="24.5"/><circle class="cls-1" cx="67.87" cy="888.3" r="24.5"/><circle class="cls-1" cx="143.8" cy="888.3" r="24.5"/><circle class="cls-1" cx="219.72" cy="888.3" r="24.5"/><circle class="cls-1" cx="295.65" cy="888.3" r="24.5"/><circle class="cls-1" cx="371.57" cy="888.3" r="24.5"/><circle class="cls-1" cx="447.5" cy="888.3" r="24.5"/><circle class="cls-1" cx="523.43" cy="888.3" r="24.5"/><circle class="cls-1" cx="599.35" cy="888.3" r="24.5"/><circle class="cls-1" cx="675.28" cy="888.3" r="24.5"/><circle class="cls-1" cx="751.2" cy="888.3" r="24.5"/><circle class="cls-1" cx="827.13" cy="888.3" r="24.5"/><circle class="cls-1" cx="903.06" cy="888.3" r="24.5"/><circle class="cls-1" cx="978.98" cy="888.3" r="24.5"/><circle class="cls-1" cx="1054.91" cy="888.3" r="24.5"/><circle class="cls-1" cx="1130.83" cy="888.3" r="24.5"/><circle class="cls-1" cx="1206.76" cy="888.3" r="24.5"/><circle class="cls-1" cx="1282.69" cy="888.3" r="24.5"/><circle class="cls-1" cx="1358.61" cy="888.3" r="24.5"/><circle class="cls-1" cx="1434.54" cy="888.3" r="24.5"/><circle class="cls-1" cx="1510.46" cy="888.3" r="24.5"/><circle class="cls-1" cx="1586.39" cy="888.3" r="24.5"/><circle class="cls-1" cx="1662.31" cy="888.3" r="24.5"/><circle class="cls-1" cx="1738.24" cy="888.3" r="24.5"/><circle class="cls-1" cx="1814.17" cy="888.3" r="24.5"/><circle class="cls-1" cx="105.83" cy="813.28" r="24.5"/><circle class="cls-1" cx="181.76" cy="813.28" r="24.5"/><circle class="cls-1" cx="257.69" cy="813.28" r="24.5"/><circle class="cls-1" cx="333.61" cy="813.28" r="24.5"/><circle class="cls-1" cx="409.54" cy="813.28" r="24.5"/><circle class="cls-1" cx="485.46" cy="813.28" r="24.5"/><circle class="cls-1" cx="561.39" cy="813.28" r="24.5"/><circle class="cls-1" cx="637.31" cy="813.28" r="24.5"/><circle class="cls-1" cx="713.24" cy="813.28" r="24.5"/><circle class="cls-1" cx="789.17" cy="813.28" r="24.5"/><circle class="cls-1" cx="865.09" cy="813.28" r="24.5"/><circle class="cls-1" cx="941.02" cy="813.28" r="24.5"/><circle class="cls-1" cx="1016.94" cy="813.28" r="24.5"/><circle class="cls-1" cx="1092.87" cy="813.28" r="24.5"/><circle class="cls-1" cx="1168.8" cy="813.28" r="24.5"/><circle class="cls-1" cx="1244.72" cy="813.28" r="24.5"/><circle class="cls-1" cx="1320.65" cy="813.28" r="24.5"/><circle class="cls-1" cx="1396.57" cy="813.28" r="24.5"/><circle class="cls-1" cx="1472.5" cy="813.28" r="24.5"/><circle class="cls-1" cx="1548.43" cy="813.28" r="24.5"/><circle class="cls-1" cx="1624.35" cy="813.28" r="24.5"/><circle class="cls-1" cx="1700.28" cy="813.28" r="24.5"/><circle class="cls-1" cx="1776.2" cy="813.28" r="24.5"/><circle class="cls-1" cx="1852.13" cy="813.28" r="24.5"/><circle class="cls-1" cx="67.87" cy="738.26" r="24.5"/><circle class="cls-1" cx="143.8" cy="738.26" r="24.5"/><circle class="cls-1" cx="219.72" cy="738.26" r="24.5"/><circle class="cls-1" cx="295.65" cy="738.26" r="24.5"/><circle class="cls-1" cx="371.57" cy="738.26" r="24.5"/><circle class="cls-1" cx="447.5" cy="738.26" r="24.5"/><circle class="cls-1" cx="523.43" cy="738.26" r="24.5"/><circle class="cls-1" cx="599.35" cy="738.26" r="24.5"/><circle class="cls-1" cx="675.28" cy="738.26" r="24.5"/><circle class="cls-1" cx="751.2" cy="738.26" r="24.5"/><circle class="cls-1" cx="827.13" cy="738.26" r="24.5"/><circle class="cls-1" cx="903.06" cy="738.26" r="24.5"/><circle class="cls-1" cx="978.98" cy="738.26" r="24.5"/><circle class="cls-1" cx="1054.91" cy="738.26" r="24.5"/><circle class="cls-1" cx="1130.83" cy="738.26" r="24.5"/><circle class="cls-1" cx="1206.76" cy="738.26" r="24.5"/><circle class="cls-1" cx="1282.69" cy="738.26" r="24.5"/><circle class="cls-1" cx="1358.61" cy="738.26" r="24.5"/><circle class="cls-1" cx="1434.54" cy="738.26" r="24.5"/><circle class="cls-1" cx="1510.46" cy="738.26" r="24.5"/><circle class="cls-1" cx="1586.39" cy="738.26" r="24.5"/><circle class="cls-1" cx="1662.31" cy="738.26" r="24.5"/><circle class="cls-1" cx="1738.24" cy="738.26" r="24.5"/><circle class="cls-1" cx="1814.17" cy="738.26" r="24.5"/><circle class="cls-1" cx="105.83" cy="662.76" r="24.5"/><circle class="cls-1" cx="181.76" cy="662.76" r="24.5"/><circle class="cls-1" cx="257.69" cy="662.76" r="24.5"/><circle class="cls-1" cx="333.61" cy="662.76" r="24.5"/><circle class="cls-1" cx="409.54" cy="662.76" r="24.5"/><circle class="cls-1" cx="485.46" cy="662.76" r="24.5"/><circle class="cls-1" cx="561.39" cy="662.76" r="24.5"/><circle class="cls-1" cx="637.31" cy="662.76" r="24.5"/><circle class="cls-1" cx="713.24" cy="662.76" r="24.5"/><circle class="cls-1" cx="789.17" cy="662.76" r="24.5"/><circle class="cls-1" cx="865.09" cy="662.76" r="24.5"/><circle class="cls-1" cx="941.02" cy="662.76" r="24.5"/><circle class="cls-1" cx="1016.94" cy="662.76" r="24.5"/><circle class="cls-1" cx="1092.87" cy="662.76" r="24.5"/><circle class="cls-1" cx="1168.8" cy="662.76" r="24.5"/><circle class="cls-1" cx="1244.72" cy="662.76" r="24.5"/><circle class="cls-1" cx="1320.65" cy="662.76" r="24.5"/><circle class="cls-1" cx="1396.57" cy="662.76" r="24.5"/><circle class="cls-1" cx="1472.5" cy="662.76" r="24.5"/><circle class="cls-1" cx="1548.43" cy="662.76" r="24.5"/><circle class="cls-1" cx="1624.35" cy="662.76" r="24.5"/><circle class="cls-1" cx="1700.28" cy="662.76" r="24.5"/><circle class="cls-1" cx="1776.2" cy="662.76" r="24.5"/><circle class="cls-1" cx="1852.13" cy="662.76" r="24.5"/><circle class="cls-1" cx="67.87" cy="587.74" r="24.5"/><circle class="cls-1" cx="143.8" cy="587.74" r="24.5"/><circle class="cls-1" cx="219.72" cy="587.74" r="24.5"/><circle class="cls-1" cx="295.65" cy="587.74" r="24.5"/><circle class="cls-1" cx="371.57" cy="587.74" r="24.5"/><circle class="cls-1" cx="447.5" cy="587.74" r="24.5"/><circle class="cls-1" cx="523.43" cy="587.74" r="24.5"/><circle class="cls-1" cx="599.35" cy="587.74" r="24.5"/><circle class="cls-1" cx="675.28" cy="587.74" r="24.5"/><circle class="cls-1" cx="751.2" cy="587.74" r="24.5"/><circle class="cls-1" cx="827.13" cy="587.74" r="24.5"/><circle class="cls-1" cx="903.06" cy="587.74" r="24.5"/><circle class="cls-1" cx="978.98" cy="587.74" r="24.5"/><circle class="cls-1" cx="1054.91" cy="587.74" r="24.5"/><circle class="cls-1" cx="1130.83" cy="587.74" r="24.5"/><circle class="cls-1" cx="1206.76" cy="587.74" r="24.5"/><circle class="cls-1" cx="1282.69" cy="587.74" r="24.5"/><circle class="cls-1" cx="1358.61" cy="587.74" r="24.5"/><circle class="cls-1" cx="1434.54" cy="587.74" r="24.5"/><circle class="cls-1" cx="1510.46" cy="587.74" r="24.5"/><circle class="cls-1" cx="1586.39" cy="587.74" r="24.5"/><circle class="cls-1" cx="1662.31" cy="587.74" r="24.5"/><circle class="cls-1" cx="1738.24" cy="587.74" r="24.5"/><circle class="cls-1" cx="1814.17" cy="587.74" r="24.5"/><circle class="cls-1" cx="105.83" cy="512.72" r="24.5"/><circle class="cls-1" cx="181.76" cy="512.72" r="24.5"/><circle class="cls-1" cx="257.69" cy="512.72" r="24.5"/><circle class="cls-1" cx="333.61" cy="512.72" r="24.5"/><circle class="cls-1" cx="409.54" cy="512.72" r="24.5"/><circle class="cls-1" cx="485.46" cy="512.72" r="24.5"/><circle class="cls-1" cx="561.39" cy="512.72" r="24.5"/><circle class="cls-1" cx="637.31" cy="512.72" r="24.5"/><circle class="cls-1" cx="713.24" cy="512.72" r="24.5"/><circle class="cls-1" cx="789.17" cy="512.72" r="24.5"/><circle class="cls-1" cx="865.09" cy="512.72" r="24.5"/><circle class="cls-1" cx="941.02" cy="512.72" r="24.5"/><circle class="cls-1" cx="1016.94" cy="512.72" r="24.5"/><circle class="cls-1" cx="1092.87" cy="512.72" r="24.5"/><circle class="cls-1" cx="1168.8" cy="512.72" r="24.5"/><circle class="cls-1" cx="1244.72" cy="512.72" r="24.5"/><circle class="cls-1" cx="1320.65" cy="512.72" r="24.5"/><circle class="cls-1" cx="1396.57" cy="512.72" r="24.5"/><circle class="cls-1" cx="1472.5" cy="512.72" r="24.5"/><circle class="cls-1" cx="1548.43" cy="512.72" r="24.5"/><circle class="cls-1" cx="1624.35" cy="512.72" r="24.5"/><circle class="cls-1" cx="1700.28" cy="512.72" r="24.5"/><circle class="cls-1" cx="1776.2" cy="512.72" r="24.5"/><circle class="cls-1" cx="1852.13" cy="512.72" r="24.5"/><circle class="cls-1" cx="67.87" cy="437.7" r="24.5"/><circle class="cls-1" cx="143.8" cy="437.7" r="24.5"/><circle class="cls-1" cx="219.72" cy="437.7" r="24.5"/><circle class="cls-1" cx="295.65" cy="437.7" r="24.5"/><circle class="cls-1" cx="371.57" cy="437.7" r="24.5"/><circle class="cls-1" cx="447.5" cy="437.7" r="24.5"/><circle class="cls-1" cx="523.43" cy="437.7" r="24.5"/><circle class="cls-1" cx="599.35" cy="437.7" r="24.5"/><circle class="cls-1" cx="675.28" cy="437.7" r="24.5"/><circle class="cls-1" cx="751.2" cy="437.7" r="24.5"/><circle class="cls-1" cx="827.13" cy="437.7" r="24.5"/><circle class="cls-1" cx="903.06" cy="437.7" r="24.5"/><circle class="cls-1" cx="978.98" cy="437.7" r="24.5"/><circle class="cls-1" cx="1054.91" cy="437.7" r="24.5"/><circle class="cls-1" cx="1130.83" cy="437.7" r="24.5"/><circle class="cls-1" cx="1206.76" cy="437.7" r="24.5"/><circle class="cls-1" cx="1282.69" cy="437.7" r="24.5"/><circle class="cls-1" cx="1358.61" cy="437.7" r="24.5"/><circle class="cls-1" cx="1434.54" cy="437.7" r="24.5"/><circle class="cls-1" cx="1510.46" cy="437.7" r="24.5"/><circle class="cls-1" cx="1586.39" cy="437.7" r="24.5"/><circle class="cls-1" cx="1662.31" cy="437.7" r="24.5"/><circle class="cls-1" cx="1738.24" cy="437.7" r="24.5"/><circle class="cls-1" cx="1814.17" cy="437.7" r="24.5"/><circle class="cls-1" cx="105.83" cy="362.2" r="24.5"/><circle class="cls-1" cx="181.76" cy="362.2" r="24.5"/><circle class="cls-1" cx="257.69" cy="362.2" r="24.5"/><circle class="cls-1" cx="333.61" cy="362.2" r="24.5"/><circle class="cls-1" cx="409.54" cy="362.2" r="24.5"/><circle class="cls-1" cx="485.46" cy="362.2" r="24.5"/><circle class="cls-1" cx="561.39" cy="362.2" r="24.5"/><circle class="cls-1" cx="637.31" cy="362.2" r="24.5"/><circle class="cls-1" cx="713.24" cy="362.2" r="24.5"/><circle class="cls-1" cx="789.17" cy="362.2" r="24.5"/><circle class="cls-1" cx="865.09" cy="362.2" r="24.5"/><circle class="cls-1" cx="941.02" cy="362.2" r="24.5"/><circle class="cls-1" cx="1016.94" cy="362.2" r="24.5"/><circle class="cls-1" cx="1092.87" cy="362.2" r="24.5"/><circle class="cls-1" cx="1168.8" cy="362.2" r="24.5"/><circle class="cls-1" cx="1244.72" cy="362.2" r="24.5"/><circle class="cls-1" cx="1320.65" cy="362.2" r="24.5"/><circle class="cls-1" cx="1396.57" cy="362.2" r="24.5"/><circle class="cls-1" cx="1472.5" cy="362.2" r="24.5"/><circle class="cls-1" cx="1548.43" cy="362.2" r="24.5"/><circle class="cls-1" cx="1624.35" cy="362.2" r="24.5"/><circle class="cls-1" cx="1700.28" cy="362.2" r="24.5"/><circle class="cls-1" cx="1776.2" cy="362.2" r="24.5"/><circle class="cls-1" cx="1852.13" cy="362.2" r="24.5"/><circle class="cls-1" cx="67.87" cy="287.18" r="24.5"/><circle class="cls-1" cx="143.8" cy="287.18" r="24.5"/><circle class="cls-1" cx="219.72" cy="287.18" r="24.5"/><circle class="cls-1" cx="295.65" cy="287.18" r="24.5"/><circle class="cls-1" cx="371.57" cy="287.18" r="24.5"/><circle class="cls-1" cx="447.5" cy="287.18" r="24.5"/><circle class="cls-1" cx="523.43" cy="287.18" r="24.5"/><circle class="cls-1" cx="599.35" cy="287.18" r="24.5"/><circle class="cls-1" cx="675.28" cy="287.18" r="24.5"/><circle class="cls-1" cx="751.2" cy="287.18" r="24.5"/><circle class="cls-1" cx="827.13" cy="287.18" r="24.5"/><circle class="cls-1" cx="903.06" cy="287.18" r="24.5"/><circle class="cls-1" cx="978.98" cy="287.18" r="24.5"/><circle class="cls-1" cx="1054.91" cy="287.18" r="24.5"/><circle class="cls-1" cx="1130.83" cy="287.18" r="24.5"/><circle class="cls-1" cx="1206.76" cy="287.18" r="24.5"/><circle class="cls-1" cx="1282.69" cy="287.18" r="24.5"/><circle class="cls-1" cx="1358.61" cy="287.18" r="24.5"/><circle class="cls-1" cx="1434.54" cy="287.18" r="24.5"/><circle class="cls-1" cx="1510.46" cy="287.18" r="24.5"/><circle class="cls-1" cx="1586.39" cy="287.18" r="24.5"/><circle class="cls-1" cx="1662.31" cy="287.18" r="24.5"/><circle class="cls-1" cx="1738.24" cy="287.18" r="24.5"/><circle class="cls-1" cx="1814.17" cy="287.18" r="24.5"/><circle class="cls-1" cx="105.83" cy="212.16" r="24.5"/><circle class="cls-1" cx="181.76" cy="212.16" r="24.5"/><circle class="cls-1" cx="257.69" cy="212.16" r="24.5"/><circle class="cls-1" cx="333.61" cy="212.16" r="24.5"/><circle class="cls-1" cx="409.54" cy="212.16" r="24.5"/><circle class="cls-1" cx="485.46" cy="212.16" r="24.5"/><circle class="cls-1" cx="561.39" cy="212.16" r="24.5"/><circle class="cls-1" cx="637.31" cy="212.16" r="24.5"/><circle class="cls-1" cx="713.24" cy="212.16" r="24.5"/><circle class="cls-1" cx="789.17" cy="212.16" r="24.5"/><circle class="cls-1" cx="865.09" cy="212.16" r="24.5"/><circle class="cls-1" cx="941.02" cy="212.16" r="24.5"/><circle class="cls-1" cx="1016.94" cy="212.16" r="24.5"/><circle class="cls-1" cx="1092.87" cy="212.16" r="24.5"/><circle class="cls-1" cx="1168.8" cy="212.16" r="24.5"/><circle class="cls-1" cx="1244.72" cy="212.16" r="24.5"/><circle class="cls-1" cx="1320.65" cy="212.16" r="24.5"/><circle class="cls-1" cx="1396.57" cy="212.16" r="24.5"/><circle class="cls-1" cx="1472.5" cy="212.16" r="24.5"/><circle class="cls-1" cx="1548.43" cy="212.16" r="24.5"/><circle class="cls-1" cx="1624.35" cy="212.16" r="24.5"/><circle class="cls-1" cx="1700.28" cy="212.16" r="24.5"/><circle class="cls-1" cx="1776.2" cy="212.16" r="24.5"/><circle class="cls-1" cx="1852.13" cy="212.16" r="24.5"/><circle class="cls-1" cx="67.87" cy="137.14" r="24.5"/><circle class="cls-1" cx="143.8" cy="137.14" r="24.5"/><circle class="cls-1" cx="219.72" cy="137.14" r="24.5"/><circle class="cls-1" cx="295.65" cy="137.14" r="24.5"/><circle class="cls-1" cx="371.57" cy="137.14" r="24.5"/><circle class="cls-1" cx="447.5" cy="137.14" r="24.5"/><circle class="cls-1" cx="523.43" cy="137.14" r="24.5"/><circle class="cls-1" cx="599.35" cy="137.14" r="24.5"/><circle class="cls-1" cx="675.28" cy="137.14" r="24.5"/><circle class="cls-1" cx="751.2" cy="137.14" r="24.5"/><circle class="cls-1" cx="827.13" cy="137.14" r="24.5"/><circle class="cls-1" cx="903.06" cy="137.14" r="24.5"/><circle class="cls-1" cx="978.98" cy="137.14" r="24.5"/><circle class="cls-1" cx="1054.91" cy="137.14" r="24.5"/><circle class="cls-1" cx="1130.83" cy="137.14" r="24.5"/><circle class="cls-1" cx="1206.76" cy="137.14" r="24.5"/><circle class="cls-1" cx="1282.69" cy="137.14" r="24.5"/><circle class="cls-1" cx="1358.61" cy="137.14" r="24.5"/><circle class="cls-1" cx="1434.54" cy="137.14" r="24.5"/><circle class="cls-1" cx="1510.46" cy="137.14" r="24.5"/><circle class="cls-1" cx="1586.39" cy="137.14" r="24.5"/><circle class="cls-1" cx="1662.31" cy="137.14" r="24.5"/><circle class="cls-1" cx="1738.24" cy="137.14" r="24.5"/><circle class="cls-1" cx="1814.17" cy="137.14" r="24.5"/></svg>